<svg xmlns="http://www.w3.org/2000/svg" width="234.56" height="35" viewBox="0 0 234.56 35"><rect class="svg__rect" x="0" y="0" width="95.99" height="35" fill="#88DAC0"/><rect class="svg__rect" x="93.99" y="0" width="140.57" height="35" fill="#34302F"/><path class="svg__text" d="M15.69 22L14.22 22L14.22 13.47L16.14 13.47L18.60 20.01L21.06 13.47L22.97 13.47L22.97 22L21.49 22L21.49 19.19L21.64 15.43L19.12 22L18.06 22L15.55 15.43L15.69 19.19L15.69 22ZM28.49 22L26.95 22L30.17 13.47L31.50 13.47L34.73 22L33.18 22L32.49 20.01L29.18 20.01L28.49 22ZM30.83 15.28L29.60 18.82L32.07 18.82L30.83 15.28ZM41.14 22L38.69 22L38.69 13.47L41.21 13.47Q42.34 13.47 43.21 13.97Q44.09 14.48 44.57 15.40Q45.05 16.33 45.05 17.52L45.05 17.52L45.05 17.95Q45.05 19.16 44.57 20.08Q44.08 21.00 43.19 21.50Q42.30 22 41.14 22L41.14 22ZM40.17 14.66L40.17 20.82L41.14 20.82Q42.30 20.82 42.93 20.09Q43.55 19.36 43.56 17.99L43.56 17.99L43.56 17.52Q43.56 16.13 42.96 15.40Q42.35 14.66 41.21 14.66L41.21 14.66L40.17 14.66ZM55.09 22L49.51 22L49.51 13.47L55.05 13.47L55.05 14.66L51.00 14.66L51.00 17.02L54.50 17.02L54.50 18.19L51.00 18.19L51.00 20.82L55.09 20.82L55.09 22ZM68.38 22L65.26 22L65.26 13.47L68.19 13.47Q69.64 13.47 70.39 14.05Q71.15 14.63 71.15 15.78L71.15 15.78Q71.15 16.36 70.83 16.83Q70.51 17.30 69.90 17.56L69.90 17.56Q70.60 17.75 70.97 18.26Q71.35 18.78 71.35 19.51L71.35 19.51Q71.35 20.71 70.58 21.36Q69.81 22 68.38 22L68.38 22ZM66.75 18.15L66.75 20.82L68.39 20.82Q69.09 20.82 69.48 20.47Q69.88 20.13 69.88 19.51L69.88 19.51Q69.88 18.18 68.52 18.15L68.52 18.15L66.75 18.15ZM66.75 14.66L66.75 17.06L68.20 17.06Q68.89 17.06 69.28 16.75Q69.67 16.43 69.67 15.86L69.67 15.86Q69.67 15.23 69.31 14.95Q68.95 14.66 68.19 14.66L68.19 14.66L66.75 14.66ZM77.86 18.86L75.00 13.47L76.64 13.47L78.61 17.51L80.57 13.47L82.21 13.47L79.35 18.86L79.35 22L77.86 22L77.86 18.86Z" fill="#FFFFFF"/><path class="svg__text" d="M110.56 22L108.18 22L108.18 13.60L110.56 13.60L110.56 22ZM118.06 22L115.73 22L115.73 13.60L117.69 13.60L121.40 18.07L121.40 13.60L123.72 13.60L123.72 22L121.77 22L118.06 17.52L118.06 22ZM131.47 22L127.88 13.60L130.45 13.60L132.73 19.07L135.05 13.60L137.40 13.60L133.81 22L131.47 22ZM142.98 22L140.55 22L144.26 13.60L146.60 13.60L150.32 22L147.85 22L147.19 20.37L143.64 20.37L142.98 22ZM145.41 15.93L144.33 18.61L146.49 18.61L145.41 15.93ZM156.27 15.48L153.68 15.48L153.68 13.60L161.21 13.60L161.21 15.48L158.64 15.48L158.64 22L156.27 22L156.27 15.48ZM165.15 17.80L165.15 17.80Q165.15 16.55 165.75 15.55Q166.36 14.56 167.42 14.00Q168.48 13.43 169.81 13.43L169.81 13.43Q171.14 13.43 172.21 14.00Q173.27 14.56 173.88 15.55Q174.48 16.55 174.48 17.80L174.48 17.80Q174.48 19.05 173.88 20.04Q173.27 21.04 172.21 21.60Q171.15 22.17 169.81 22.17L169.81 22.17Q168.48 22.17 167.42 21.60Q166.36 21.04 165.75 20.04Q165.15 19.05 165.15 17.80ZM167.55 17.80L167.55 17.80Q167.55 18.51 167.85 19.05Q168.15 19.60 168.66 19.90Q169.18 20.20 169.81 20.20L169.81 20.20Q170.45 20.20 170.97 19.90Q171.48 19.60 171.78 19.05Q172.08 18.51 172.08 17.80L172.08 17.80Q172.08 17.09 171.78 16.54Q171.48 16 170.97 15.70Q170.45 15.40 169.81 15.40L169.81 15.40Q169.17 15.40 168.66 15.70Q168.15 16 167.85 16.54Q167.55 17.09 167.55 17.80ZM181.59 22L179.21 22L179.21 13.60L183.05 13.60Q184.20 13.60 185.04 13.98Q185.87 14.35 186.33 15.06Q186.79 15.76 186.79 16.71L186.79 16.71Q186.79 17.62 186.36 18.30Q185.93 18.98 185.14 19.36L185.14 19.36L186.95 22L184.41 22L182.88 19.77L181.59 19.77L181.59 22ZM181.59 15.47L181.59 17.93L182.91 17.93Q183.64 17.93 184.01 17.61Q184.38 17.29 184.38 16.71L184.38 16.71Q184.38 16.12 184.01 15.79Q183.64 15.47 182.91 15.47L182.91 15.47L181.59 15.47ZM198.68 22L191.16 22L191.16 20.51L195.39 15.48L191.26 15.48L191.26 13.60L198.50 13.60L198.50 15.09L194.26 20.11L198.68 20.11L198.68 22ZM209.95 22L203.21 22L203.21 13.60L209.80 13.60L209.80 15.44L205.56 15.44L205.56 16.85L209.29 16.85L209.29 18.63L205.56 18.63L205.56 20.17L209.95 20.17L209.95 22ZM217.09 22L214.75 22L214.75 13.60L216.71 13.60L220.42 18.07L220.42 13.60L222.75 13.60L222.75 22L220.80 22L217.09 17.52L217.09 22Z" fill="#FFFFFF" x="106.99"/></svg>