<svg xmlns="http://www.w3.org/2000/svg" width="175.7" height="35" viewBox="0 0 175.7 35"><rect class="svg__rect" x="0" y="0" width="106.33" height="35" fill="#4CA0F2"/><rect class="svg__rect" x="104.33" y="0" width="71.36999999999999" height="35" fill="#6562F8"/><path class="svg__text" d="M15.69 22L14.22 22L14.22 13.47L16.14 13.47L18.60 20.01L21.06 13.47L22.97 13.47L22.97 22L21.49 22L21.49 19.19L21.64 15.43L19.12 22L18.06 22L15.55 15.43L15.69 19.19L15.69 22ZM28.49 22L26.95 22L30.17 13.47L31.50 13.47L34.73 22L33.18 22L32.49 20.01L29.18 20.01L28.49 22ZM30.83 15.28L29.60 18.82L32.07 18.82L30.83 15.28ZM41.14 22L38.69 22L38.69 13.47L41.21 13.47Q42.34 13.47 43.21 13.97Q44.09 14.48 44.57 15.40Q45.05 16.33 45.05 17.52L45.05 17.52L45.05 17.95Q45.05 19.16 44.57 20.08Q44.08 21.00 43.19 21.50Q42.30 22 41.14 22L41.14 22ZM40.17 14.66L40.17 20.82L41.14 20.82Q42.30 20.82 42.93 20.09Q43.55 19.36 43.56 17.99L43.56 17.99L43.56 17.52Q43.56 16.13 42.96 15.40Q42.35 14.66 41.21 14.66L41.21 14.66L40.17 14.66ZM55.09 22L49.51 22L49.51 13.47L55.05 13.47L55.05 14.66L51.00 14.66L51.00 17.02L54.50 17.02L54.50 18.19L51.00 18.19L51.00 20.82L55.09 20.82L55.09 22ZM66.75 22L65.26 22L65.26 13.47L70.68 13.47L70.68 14.66L66.75 14.66L66.75 17.20L70.18 17.20L70.18 18.38L66.75 18.38L66.75 22ZM74.57 18.00L74.57 18.00L74.57 17.52Q74.57 16.28 75.02 15.32Q75.46 14.37 76.27 13.86Q77.07 13.35 78.11 13.35Q79.16 13.35 79.96 13.85Q80.77 14.35 81.21 15.29Q81.65 16.23 81.65 17.48L81.65 17.48L81.65 17.96Q81.65 19.21 81.22 20.16Q80.79 21.10 79.98 21.61Q79.17 22.12 78.13 22.12L78.13 22.12Q77.09 22.12 76.28 21.61Q75.47 21.10 75.02 20.17Q74.58 19.23 74.57 18.00ZM76.06 17.46L76.06 17.96Q76.06 19.36 76.60 20.13Q77.15 20.90 78.13 20.90L78.13 20.90Q79.11 20.90 79.64 20.15Q80.17 19.40 80.17 17.96L80.17 17.96L80.17 17.51Q80.17 16.09 79.63 15.34Q79.10 14.58 78.11 14.58L78.11 14.58Q77.15 14.58 76.61 15.33Q76.07 16.09 76.06 17.46L76.06 17.46ZM87.60 22L86.12 22L86.12 13.47L89.12 13.47Q90.59 13.47 91.40 14.13Q92.20 14.79 92.20 16.05L92.20 16.05Q92.20 16.90 91.79 17.48Q91.37 18.06 90.64 18.37L90.64 18.37L92.55 21.92L92.55 22L90.96 22L89.25 18.71L87.60 18.71L87.60 22ZM87.60 14.66L87.60 17.52L89.12 17.52Q89.87 17.52 90.30 17.15Q90.72 16.77 90.72 16.11L90.72 16.11Q90.72 15.43 90.33 15.05Q89.94 14.68 89.16 14.66L89.16 14.66L87.60 14.66Z" fill="#FFFFFF"/><path class="svg__text" d="M120.90 22L118.52 22L118.52 13.60L122.36 13.60Q123.50 13.60 124.34 13.98Q125.18 14.35 125.64 15.06Q126.09 15.76 126.09 16.71L126.09 16.71Q126.09 17.66 125.64 18.35Q125.18 19.05 124.34 19.42Q123.50 19.80 122.36 19.80L122.36 19.80L120.90 19.80L120.90 22ZM120.90 15.47L120.90 17.93L122.22 17.93Q122.95 17.93 123.32 17.61Q123.69 17.29 123.69 16.71L123.69 16.71Q123.69 16.12 123.32 15.80Q122.95 15.47 122.22 15.47L122.22 15.47L120.90 15.47ZM130.26 21.24L130.26 21.24L131.04 19.49Q131.60 19.86 132.35 20.09Q133.09 20.32 133.81 20.32L133.81 20.32Q135.18 20.32 135.18 19.64L135.18 19.64Q135.18 19.28 134.79 19.11Q134.40 18.93 133.54 18.74L133.54 18.74Q132.59 18.53 131.95 18.30Q131.31 18.06 130.86 17.55Q130.41 17.03 130.41 16.16L130.41 16.16Q130.41 15.39 130.83 14.77Q131.24 14.15 132.08 13.79Q132.91 13.43 134.12 13.43L134.12 13.43Q134.95 13.43 135.75 13.62Q136.56 13.80 137.17 14.17L137.17 14.17L136.44 15.93Q135.24 15.28 134.11 15.28L134.11 15.28Q133.40 15.28 133.08 15.49Q132.76 15.70 132.76 16.04L132.76 16.04Q132.76 16.37 133.14 16.54Q133.52 16.71 134.37 16.89L134.37 16.89Q135.33 17.10 135.96 17.33Q136.59 17.56 137.06 18.07Q137.52 18.58 137.52 19.46L137.52 19.46Q137.52 20.21 137.10 20.83Q136.68 21.44 135.84 21.80Q135.00 22.17 133.80 22.17L133.80 22.17Q132.78 22.17 131.82 21.92Q130.86 21.67 130.26 21.24ZM146.07 22L142.10 22L142.10 13.60L146.07 13.60Q147.45 13.60 148.52 14.12Q149.58 14.63 150.17 15.58Q150.76 16.53 150.76 17.80L150.76 17.80Q150.76 19.07 150.17 20.02Q149.58 20.97 148.52 21.48Q147.45 22 146.07 22L146.07 22ZM144.47 15.50L144.47 20.10L145.97 20.10Q147.05 20.10 147.71 19.49Q148.36 18.88 148.36 17.80L148.36 17.80Q148.36 16.72 147.71 16.11Q147.05 15.50 145.97 15.50L145.97 15.50L144.47 15.50ZM157.85 22L155.49 22L155.49 13.60L157.85 13.60L157.85 17.09L161.10 13.60L163.71 13.60L160.28 17.32L163.89 22L161.13 22L158.73 18.95L157.85 19.90L157.85 22Z" fill="#FFFFFF" x="117.33"/></svg>